<?xml version="1.0" standalone="no"?>
<!DOCTYPE svg PUBLIC "-//W3C//DTD SVG 20010904//EN"
 "http://www.w3.org/TR/2001/REC-SVG-20010904/DTD/svg10.dtd">
<svg version="1.0" xmlns="http://www.w3.org/2000/svg"
 width="500.000000pt" height="500.000000pt" viewBox="0 0 500.000000 500.000000"
 preserveAspectRatio="xMidYMid meet">
<metadata>
Created by potrace 1.11, written by Peter Selinger 2001-2013
</metadata>
<g transform="translate(0.000000,500.000000) scale(0.100000,-0.100000)"
fill="#000000" stroke="none">
<path d="M2275 4699 c-760 -78 -1425 -539 -1769 -1226 -108 -217 -179 -461
-216 -748 -23 -178 -22 -283 1 -470 58 -457 229 -852 517 -1196 274 -327 670
-580 1086 -694 538 -147 1077 -98 1571 144 478 234 851 627 1062 1118 89 206
139 400 168 653 25 210 14 422 -34 655 -139 678 -586 1253 -1205 1551 -370
178 -790 253 -1181 213z m530 -103 c201 -33 354 -76 523 -148 518 -219 936
-650 1142 -1180 266 -682 163 -1451 -273 -2041 -284 -383 -712 -671 -1174
-788 -193 -49 -318 -64 -533 -63 -135 0 -230 5 -308 17 -472 73 -882 284
-1207 619 -171 175 -292 348 -395 559 -398 825 -223 1810 436 2449 340 330
749 524 1231 585 133 17 429 12 558 -9z"/>
<path d="M2245 4555 c-857 -109 -1553 -721 -1764 -1550 -47 -184 -55 -260 -55
-505 0 -251 8 -320 60 -525 83 -326 265 -652 498 -893 34 -35 77 -77 98 -93
l36 -29 51 25 c97 49 201 51 293 4 24 -12 78 -25 123 -30 44 -5 103 -13 130
-18 44 -9 52 -7 65 10 8 11 32 42 52 69 44 58 105 96 173 109 236 44 242 45
299 32 38 -8 86 -32 148 -74 89 -59 96 -61 176 -69 108 -9 171 -39 242 -111
l54 -57 62 0 c45 0 86 -9 144 -30 98 -36 109 -37 185 -5 88 36 180 35 262 -4
l62 -30 58 41 c805 569 1089 1664 662 2557 -71 148 -130 248 -212 356 -333
441 -803 723 -1352 812 -132 21 -417 25 -550 8z m665 -311 l32 -7 -6 -50 c-4
-28 -8 -55 -9 -61 -1 -5 7 -12 18 -14 11 -2 37 -8 59 -13 l39 -10 -7 -47 c-3
-25 -13 -56 -21 -68 -14 -22 -16 -23 -62 -9 -63 19 -58 21 -71 -24 -18 -57
-16 -67 25 -132 31 -51 36 -68 36 -118 -1 -71 -28 -128 -77 -162 -43 -29 -44
-38 -10 -78 25 -30 29 -31 104 -31 44 0 155 7 247 16 370 36 562 -8 660 -150
62 -90 77 -185 47 -305 -31 -124 -88 -214 -253 -401 -125 -141 -191 -239 -227
-336 -15 -41 -33 -74 -40 -74 -7 0 -122 25 -256 55 -134 31 -322 73 -418 95
-635 143 -1129 256 -1161 266 -14 4 -15 13 -7 62 14 83 2 201 -32 327 -90 333
-93 345 -93 460 0 89 4 121 22 166 66 170 183 248 355 236 129 -8 229 -49 471
-192 252 -149 286 -161 339 -120 19 14 18 15 -3 66 -11 28 -21 65 -21 82 0 81
51 163 121 194 46 20 69 56 69 107 0 34 -1 35 -52 43 -52 8 -53 9 -56 45 -2
20 3 52 11 71 l15 35 56 -13 c31 -7 58 -10 60 -7 2 4 7 25 11 47 4 22 9 43 11
47 6 10 31 10 74 2z m-1090 -1838 c162 -34 486 -106 565 -126 22 -5 198 -46
390 -90 193 -44 403 -93 469 -110 65 -16 127 -30 137 -30 11 0 22 -7 25 -15 8
-21 -37 -206 -51 -212 -7 -2 -145 26 -306 63 -359 82 -388 88 -394 82 -3 -2 1
-18 7 -35 9 -25 8 -46 -7 -112 l-18 -80 -34 14 c-18 8 -147 37 -285 65 -139
29 -254 53 -256 55 -1 1 4 36 12 76 13 60 22 80 47 102 17 16 29 30 26 33 -2
3 -103 27 -223 55 -494 112 -484 110 -479 133 2 12 14 62 25 112 l21 92 82
-19 c45 -10 156 -34 247 -53z m-47 -296 c130 -30 138 -33 133 -54 -28 -104
-29 -124 -12 -237 9 -63 16 -129 16 -146 0 -31 -1 -32 -26 -23 -57 22 -69 15
-83 -51 -11 -57 -14 -61 -37 -55 -13 4 -86 20 -162 37 -75 17 -140 34 -144 37
-4 4 -1 33 7 65 15 64 17 61 -52 74 l-43 8 90 139 c70 108 92 151 101 196 l11
58 32 -8 c17 -5 93 -23 169 -40z m1257 -285 c85 -19 157 -38 161 -43 4 -4 1
-40 -8 -80 -13 -66 -13 -85 1 -189 20 -145 20 -167 2 -160 -8 3 -30 9 -49 12
l-35 7 -7 -49 c-11 -82 -3 -80 -186 -39 -90 20 -164 38 -166 39 -2 3 14 79 23
109 4 14 -3 19 -34 24 -73 11 -73 12 16 146 63 96 85 138 98 191 9 37 20 67
23 67 3 0 76 -16 161 -35z m-659 -71 l26 -6 5 -271 c3 -150 4 -274 3 -276 -2
-1 -27 5 -55 14 -58 19 -159 17 -292 -8 -71 -13 -76 -13 -68 3 5 9 69 141 143
292 l135 276 38 -9 c22 -5 51 -12 65 -15z"/>
<path d="M1705 3695 c-91 -32 -145 -133 -145 -270 0 -121 83 -419 159 -574 79
-160 186 -233 241 -164 17 21 20 38 18 81 -3 62 -5 64 -91 87 -68 19 -83 40
-70 102 l8 40 50 -13 c28 -8 63 -17 79 -20 l29 -7 -8 68 -7 68 48 -7 c65 -8
78 -24 84 -99 l5 -62 55 -12 c30 -6 60 -20 67 -29 14 -19 18 -114 5 -114 -5 0
-32 7 -61 16 -29 8 -59 13 -67 10 -33 -13 -5 -109 49 -164 41 -43 95 -57 140
-38 46 19 113 90 141 151 46 99 59 276 31 435 -8 47 -15 110 -15 142 l0 56
-72 55 c-85 63 -228 149 -343 207 -133 67 -245 85 -330 55z"/>
<path d="M3220 3319 c-101 -10 -246 -34 -283 -48 -13 -5 -28 -25 -36 -47 -7
-22 -36 -72 -63 -112 -113 -168 -174 -329 -166 -443 7 -94 48 -177 101 -203
34 -16 43 -17 84 -5 52 14 106 57 129 102 19 36 12 42 -58 50 -28 4 -53 8 -55
11 -10 10 10 66 31 89 21 23 28 24 62 16 78 -18 87 -14 117 46 29 60 36 63
111 44 l43 -11 -28 -51 c-16 -29 -29 -57 -29 -63 0 -6 34 -17 75 -23 44 -8 75
-17 75 -24 0 -7 -9 -32 -20 -56 l-20 -44 -63 7 c-112 13 -108 14 -127 -24 -33
-64 -35 -96 -6 -125 69 -69 218 5 407 202 211 220 289 351 289 488 0 111 -69
181 -216 219 -68 17 -196 19 -354 5z"/>
</g>
</svg>
