<?xml version="1.0" encoding="utf-8"?>
<!-- Generator: Adobe Illustrator 18.0.0, SVG Export Plug-In . SVG Version: 6.00 Build 0)  -->
<!DOCTYPE svg PUBLIC "-//W3C//DTD SVG 1.1//EN" "http://www.w3.org/Graphics/SVG/1.1/DTD/svg11.dtd">
<svg version="1.1" id="Ebene_1" xmlns="http://www.w3.org/2000/svg" xmlns:xlink="http://www.w3.org/1999/xlink" x="0px" y="0px"
	 viewBox="128 0 768 768" enable-background="new 128 0 768 768" xml:space="preserve">
<path fill="#141E8C" d="M128.7,0C384.5,0,640.2,0,896,0c0,256.5,0,511.5,0,768c-102.9-48-233.1-82.3-384-82.3S230.9,720,128,768
	c0-256.5,0-510.2,0-766.6C128,0.7,128,0,128.7,0z M308.3,215.3c-1.4,6.2,0,14.4-0.7,21.9c20.6-3.4,17.1,16.5,17.1,35
	c0,19.2,0,39.1,0,57.6c0,18.5,2.7,37-17.1,33.6c0,6.9,0,14.4,0,21.3c47.3,0,95.3,0,142.6,0c0-19.2,0-37.7,0-56.9
	c-6.9,0-14.4,0-21.3,0c-2.1,25.4-17.8,39.8-48,35.7c0.7-17.1-0.7-35.7,0.7-51.4c13.7-2.1,15.1,8.9,16.5,19.2
	c5.5,1.4,13.7,0,19.9,0.7c0-20.6,0-41.1,0-61.7c-6.9,0-14.4,0-21.3,0c1.4,13-2.1,21.3-15.8,19.9c0-17.1,0-35,0-52.1
	c32.2-4.1,44.6,11.7,48.7,35.7c5.5,1.4,13.7,0,19.9,0.7c0-19.2,0-38.4,0-57.6C403.7,215.3,355.7,215.3,308.3,215.3z M160.9,217.4
	c0,18.5,0,37,0,55.5c6.2,0,14.4,0.7,19.9-0.7c4.8-25.4,20.6-38.4,50.7-35.7C213,292.8,154.7,312,154.7,384c45.9,0,92.6,0,138.5,0
	c0-19.2,0-37.7,0-56.9c-6.9,0-15.1-0.7-20.6,0.7c-3.4,25.4-19.9,39.8-51.4,35c19.2-54.9,72.7-75.4,75.4-146.7
	c-45.3,0-90.5,0-135.1,0C160.2,216,160.9,216.7,160.9,217.4z M465.4,237.3c20.6-3.4,17.1,15.1,17.1,33.6c0,19.9,0,39.8,0,59
	c0,19.2,2.7,37-17.1,33.6c0,6.9,0,14.4,0,21.3c30.9,0,61,0,91.9,0c0-6.9,0-14.4,0-21.3c-20.6,3.4-17.1-15.1-17.1-33.6
	c0-19.2,0-39.8,0-59s-2.7-37.7,17.1-33.6c0-6.9,0-14.4,0-21.3c-30.2,0-61,0-91.2,0C464.7,221.5,466.1,230.4,465.4,237.3z M571,238.6
	c2.1,16.5,10.3,32.2,19.2,44.6c17.1,25.4,45.3,48,54.2,80.2c-32.9,4.1-48-9.6-51.4-35.7c-6.2-1.4-14.4,0-21.3-0.7
	c0,19.2,0,37.7,0,56.9c43.9,0,87.1,0,131,0c6.9-8.9,6.2-24,2.7-35.7c-5.5-16.5-15.8-32.2-26.7-45.9c-17.1-21.3-37.7-39.1-43.9-66.5
	c30.9-2.1,46.6,11,50.7,35.7c5.5,1.4,13.7,0,19.9,0.7c0-19.2,0-37.7,0-56.9c-43.2,0-86.4,0-129.6,0C571,220.1,570.3,229.7,571,238.6
	z M719.1,238.6c1.4,13,7.5,24.7,14.4,35.7c18.5,30.2,48,54.9,59,89.1c-32.9,3.4-48.7-9.6-51.4-35.7c-6.2-1.4-14.4,0-21.3-0.7
	c0,19.2,0,37.7,0,56.9c43.2,0,87.1,0,130.3,0c4.8-5.5,6.2-13,5.5-23.3c-2.7-25.4-19.9-47.3-35-64.5c-15.8-18.5-32.2-35.7-38.4-59.7
	c30.9-2.1,46.6,11.7,51.4,35.7c5.5,1.4,13,0,19.9,0.7c0-19.2,0-37.7,0-56.9c-43.2,0-85.7,0-128.9,0
	C719.8,220.1,718.4,229.7,719.1,238.6z"/>
</svg>
